<svg width="20" height="20" viewBox="0 0 20 20" fill="none" xmlns="http://www.w3.org/2000/svg">
<path d="M17.9386 15.2427C17.4243 14.7842 16.974 14.2586 16.5999 13.68C16.1915 12.8814 15.9467 12.0092 15.8799 11.1147V8.48001C15.8834 7.07501 15.3738 5.71707 14.4467 4.66133C13.5196 3.6056 12.2389 2.92474 10.8452 2.74668V2.05868C10.8452 1.86985 10.7702 1.68875 10.6367 1.55522C10.5032 1.42169 10.3221 1.34668 10.1332 1.34668C9.9444 1.34668 9.7633 1.42169 9.62977 1.55522C9.49624 1.68875 9.42123 1.86985 9.42123 2.05868V2.75735C8.04003 2.94824 6.77481 3.63322 5.85991 4.6854C4.94501 5.73759 4.44242 7.08569 4.44523 8.48001V11.1147C4.37843 12.0092 4.13364 12.8814 3.72523 13.68C3.3577 14.2573 2.91467 14.7828 2.4079 15.2427C2.35101 15.2927 2.30541 15.3542 2.27415 15.4231C2.24288 15.4921 2.22666 15.567 2.22656 15.6427V16.368C2.22656 16.5095 2.28275 16.6451 2.38277 16.7451C2.48279 16.8452 2.61845 16.9013 2.7599 16.9013H17.5866C17.728 16.9013 17.8637 16.8452 17.9637 16.7451C18.0637 16.6451 18.1199 16.5095 18.1199 16.368V15.6427C18.1198 15.567 18.1036 15.4921 18.0723 15.4231C18.041 15.3542 17.9955 15.2927 17.9386 15.2427ZM3.3359 15.8347C3.83211 15.3553 4.26902 14.8181 4.63723 14.2347C5.15169 13.2701 5.45186 12.2059 5.51723 11.1147V8.48001C5.49608 7.85497 5.60092 7.23205 5.82552 6.64837C6.05012 6.06468 6.38988 5.53217 6.82456 5.08252C7.25925 4.63288 7.77997 4.2753 8.35573 4.03109C8.93148 3.78688 9.55049 3.66103 10.1759 3.66103C10.8013 3.66103 11.4203 3.78688 11.9961 4.03109C12.5718 4.2753 13.0925 4.63288 13.5272 5.08252C13.9619 5.53217 14.3017 6.06468 14.5263 6.64837C14.7509 7.23205 14.8557 7.85497 14.8346 8.48001V11.1147C14.8999 12.2059 15.2001 13.2701 15.7146 14.2347C16.0828 14.8181 16.5197 15.3553 17.0159 15.8347H3.3359Z" fill="#FFA412"/>
<path d="M10.1996 18.6827C10.5356 18.6749 10.858 18.5486 11.1098 18.3261C11.3616 18.1036 11.5266 17.7991 11.5756 17.4667H8.77026C8.82065 17.8082 8.99337 18.1197 9.25629 18.3434C9.51921 18.5671 9.85444 18.6877 10.1996 18.6827Z" fill="#FFA412"/>
</svg>
