<svg width="84" height="84" viewBox="0 0 84 84" fill="none" xmlns="http://www.w3.org/2000/svg">
<circle cx="42" cy="42" r="42" fill="url(#paint0_linear_272_747)"/>
<path d="M57.4702 29.0675C56.5764 28.1733 55.5151 27.4639 54.3471 26.9799C53.179 26.4959 51.9271 26.2468 50.6627 26.2468C49.3984 26.2468 48.1464 26.4959 46.9783 26.9799C45.8103 27.4639 44.749 28.1733 43.8552 29.0675L42.0002 30.9225L40.1452 29.0675C38.3397 27.2621 35.891 26.2478 33.3377 26.2478C30.7844 26.2478 28.3357 27.2621 26.5302 29.0675C24.7247 30.873 23.7104 33.3217 23.7104 35.875C23.7104 38.4283 24.7247 40.8771 26.5302 42.6825L42.0002 58.1525L57.4702 42.6825C58.3644 41.7887 59.0738 40.7274 59.5578 39.5594C60.0418 38.3913 60.2909 37.1394 60.2909 35.875C60.2909 34.6107 60.0418 33.3587 59.5578 32.1906C59.0738 31.0226 58.3644 29.9613 57.4702 29.0675Z" stroke="#EC221F" stroke-width="3.5" stroke-linecap="round" stroke-linejoin="round"/>
<defs>
<linearGradient id="paint0_linear_272_747" x1="74.55" y1="2.14197e-06" x2="42" y2="84" gradientUnits="userSpaceOnUse">
<stop stop-color="#FFDEDE"/>
<stop offset="1" stop-color="#FFFAFA"/>
</linearGradient>
</defs>
</svg>
