<svg width="30" height="30" viewBox="0 0 30 30" fill="none" xmlns="http://www.w3.org/2000/svg">
<path fill-rule="evenodd" clip-rule="evenodd" d="M13.75 2.5H3.33333C2.8731 2.5 2.5 2.8731 2.5 3.33333V26.6667C2.5 27.1269 2.8731 27.5 3.33333 27.5H13.75V2.5ZM3.33333 30C1.49238 30 0 28.5076 0 26.6667V3.33333C0 1.49238 1.49238 0 3.33333 0H26.6667C28.5076 0 30 1.49238 30 3.33333V26.6667C30 28.5076 28.5076 30 26.6667 30H3.33333ZM27.5 14.5833V26.6667C27.5 27.1269 27.1269 27.5 26.6667 27.5H16.25V14.5833H27.5ZM27.5 12.0833V3.33333C27.5 2.8731 27.1269 2.5 26.6667 2.5H16.25V12.0833H27.5Z" fill="white"/>
</svg>
