<svg width="84" height="84" viewBox="0 0 84 84" fill="none" xmlns="http://www.w3.org/2000/svg">
<circle cx="42" cy="42" r="42" fill="url(#paint0_linear_84_1735)"/>
<circle cx="42" cy="42" r="42" fill="url(#paint1_linear_84_1735)"/>
<circle cx="42" cy="42" r="42" fill="url(#paint2_linear_84_1735)"/>
<path fill-rule="evenodd" clip-rule="evenodd" d="M46.2656 59.4219C45.9375 59.4219 45.6094 59.2031 45.5 58.7656L43.3125 44.1094L41.4531 45.4219C41.2344 45.6406 40.9062 45.6406 40.6875 45.5312C40.4688 45.4219 40.25 45.2031 40.25 44.875L38.8281 34.5938L37.1875 45.0938C37.0781 45.3125 36.8594 45.5312 36.6406 45.6406C36.4219 45.75 36.0938 45.6406 35.875 45.5312L34.7812 44.5469H30.4062C30.0781 44.5469 29.75 44.2188 29.6406 43.8906L28.9844 40.8281L27.3438 45.2031C27.2344 45.4219 27.0156 45.6406 26.7969 45.6406C26.4688 45.75 26.25 45.6406 26.0312 45.5312L24.9375 44.5469H22.0938C21.6562 44.5469 21.4375 44.2188 21.3281 43.8906L20.5625 40.6094L18.9219 45.2031C18.8125 45.4219 18.5938 45.6406 18.375 45.6406C18.1562 45.75 17.8281 45.6406 17.7188 45.5312L16.625 44.5469H14.7656C14.3281 44.5469 14 44.2188 14 43.7812C14 43.3438 14.3281 43.0156 14.7656 43.0156H16.9531C17.0625 43.0156 17.2812 43.0156 17.3906 43.2344L17.8281 43.5625L20.0156 37.5469C20.125 37.2188 20.4531 37 20.7812 37.1094C21.2188 37.1094 21.4375 37.3281 21.5469 37.6562L22.6406 43.0156H25.2656C25.4844 43.0156 25.7031 43.0156 25.8125 43.2344L26.25 43.5625L28.4375 37.875C28.5469 37.5469 28.875 37.3281 29.2031 37.3281C29.5312 37.4375 29.8594 37.6562 29.8594 37.9844L31.0625 43.0156H35.1094C35.3281 43.0156 35.4375 43.0156 35.6562 43.125L35.875 43.4531L38.1719 29.2344C38.2812 28.7969 38.6094 28.5781 38.9375 28.5781C39.375 28.5781 39.7031 28.7969 39.7031 29.2344L41.5625 43.4531L43.5312 42.1406C43.75 42.0312 43.9688 42.0312 44.1875 42.1406C44.5156 42.25 44.625 42.4688 44.7344 42.6875L46.2656 53.625L48.125 42.4688C48.125 42.1406 48.3438 41.9219 48.5625 41.8125C48.8906 41.7031 49.1094 41.8125 49.3281 42.0312L50.4219 43.0156H54.0312C54.25 43.0156 54.3594 43.0156 54.5781 43.125L55.0156 43.5625L57.2031 38.0938C57.3125 37.7656 57.6406 37.5469 57.9688 37.5469C58.2969 37.5469 58.625 37.875 58.625 38.2031L59.8281 43.0156H69.2344C69.6719 43.0156 70 43.3438 70 43.7812C70 44.2188 69.6719 44.5469 69.2344 44.5469H59.1719C58.8438 44.5469 58.5156 44.2188 58.5156 43.8906L57.75 40.8281L56.1094 45.0938C56 45.3125 55.7812 45.4219 55.5625 45.5312C55.3438 45.6406 55.0156 45.5312 54.9062 45.4219L53.8125 44.5469H50.0938C49.9844 44.5469 49.7656 44.4375 49.6562 44.3281L49.3281 44.1094L47.0312 58.7656C46.9219 59.2031 46.5938 59.4219 46.2656 59.4219Z" fill="#D52F31"/>
<defs>
<linearGradient id="paint0_linear_84_1735" x1="74.55" y1="2.14197e-06" x2="42" y2="84" gradientUnits="userSpaceOnUse">
<stop stop-color="#FFDEDE"/>
<stop offset="1" stop-color="#FFFAFA"/>
</linearGradient>
<linearGradient id="paint1_linear_84_1735" x1="74.55" y1="2.14197e-06" x2="42" y2="84" gradientUnits="userSpaceOnUse">
<stop stop-color="#FFF0DB"/>
<stop offset="1" stop-color="#FFFCF8"/>
</linearGradient>
<linearGradient id="paint2_linear_84_1735" x1="74.55" y1="2.14197e-06" x2="42" y2="84" gradientUnits="userSpaceOnUse">
<stop stop-color="#FFDEDE"/>
<stop offset="1" stop-color="#FFFAFA"/>
</linearGradient>
</defs>
</svg>
