<svg width="84" height="84" viewBox="0 0 84 84" fill="none" xmlns="http://www.w3.org/2000/svg">
<circle cx="42" cy="42" r="42" fill="url(#paint0_linear_84_1752)"/>
<path d="M43.6539 34.0007V26.0286C43.6539 25.5821 43.4785 25.1547 43.1677 24.8402C42.857 24.5258 42.4366 24.35 41.999 24.35C41.5615 24.35 41.141 24.5258 40.8303 24.8402C40.5195 25.1547 40.3442 25.5821 40.3442 26.0286V34.0007C40.3442 34.0007 40.3442 34.0007 40.3442 34.0008C40.3442 34.3915 40.249 34.7764 40.0666 35.1214C39.8842 35.4664 39.6203 35.7609 39.2978 35.9786L39.2972 35.979L38.796 36.3158L38.2973 36.6508L38.2518 36.0517L37.915 31.6133C37.6929 28.6919 34.3759 27.1811 32.0721 28.9302L32.0718 28.9305L30.8992 29.8188C30.8992 29.8188 30.8992 29.8188 30.8991 29.8189C28.0372 31.9912 26.1289 35.212 25.5845 38.7921C25.5845 38.7921 25.5845 38.7921 25.5845 38.7921L23.4192 53.0325C22.7416 57.4893 27.1677 60.9462 31.2481 59.1765L31.2484 59.1764L33.3632 58.2616C35.2198 57.4567 36.7814 56.0836 37.8285 54.3342C38.8757 52.5848 39.3554 50.5471 39.2001 48.5071L39.2001 48.5071L38.6046 40.681L38.5886 40.4696L38.7684 40.3574L38.9095 40.2695L41.1297 38.7718L41.1297 38.7718C41.3525 38.6216 41.5646 38.4556 41.7642 38.275L41.999 38.0626L42.2338 38.275C42.4334 38.4556 42.6455 38.6216 42.8683 38.7718L42.8685 38.7719L45.0857 40.2689L45.2278 40.3563L45.4095 40.4681L45.3934 40.6809L44.7999 48.505L44.7999 48.5051C44.6444 50.5448 45.1239 52.5824 46.1707 54.3318C47.2174 56.0811 48.7786 57.4543 50.6347 58.2595L43.6539 34.0007ZM43.6539 34.0007C43.6539 34.0007 43.6539 34.0007 43.6539 34.0008C43.6538 34.3915 43.7491 34.7764 43.9314 35.1214C44.1138 35.4664 44.3777 35.7609 44.7002 35.9786L44.7008 35.979L45.202 36.3158L45.7008 36.6509L45.7462 36.0517L46.083 31.6113C46.3051 28.6902 49.6219 27.1809 51.9259 28.9302L51.9262 28.9305L53.0988 29.8188C55.962 31.9913 57.8711 35.213 58.4156 38.7941L60.5808 53.0325C61.2584 57.489 56.8305 60.9443 52.7519 59.1765L52.7518 59.1764L50.6349 58.2596L43.6539 34.0007ZM34.5665 31.2286L34.6153 31.8685L35.9024 48.7623L35.9024 48.7623C36.0043 50.1015 35.6893 51.4395 35.0012 52.5889C34.3131 53.7383 33.2861 54.6416 32.0638 55.1713C32.0638 55.1713 32.0638 55.1713 32.0638 55.1714L29.9494 56.088C29.5627 56.2566 29.1381 56.3173 28.72 56.2638C28.3019 56.2103 27.906 56.0445 27.5734 55.784C27.2408 55.5236 26.9837 55.1782 26.8283 54.784C26.673 54.3898 26.6248 53.961 26.6888 53.5419L34.5665 31.2286ZM34.5665 31.2286L34.0549 31.6161L32.8821 32.5046L32.8819 32.5048C30.7115 34.1517 29.2661 36.5926 28.854 39.3035C28.854 39.3035 28.854 39.3035 28.854 39.3035L26.6888 53.5417L34.5665 31.2286ZM51.1161 32.5048L51.1159 32.5046L49.9431 31.6161L49.4314 31.2285L49.3827 31.8686L48.0996 48.7623C48.0996 48.7624 48.0996 48.7624 48.0996 48.7624C47.9977 50.1015 48.3127 51.4396 49.0008 52.5889C49.6889 53.7383 50.7159 54.6416 51.9382 55.1714L54.051 56.0881C54.4376 56.2561 54.8619 56.3165 55.2796 56.2627C55.6974 56.2089 56.0928 56.0429 56.4251 55.7826C56.7574 55.5222 57.0142 55.1771 57.1695 54.7832C57.3248 54.3893 57.373 53.9608 57.3093 53.5419C57.3093 53.5419 57.3092 53.5419 57.3092 53.5419L55.144 39.3035C54.7319 36.5926 53.2865 34.1517 51.1161 32.5048Z" fill="#34C759" stroke="url(#paint1_linear_84_1752)" stroke-width="0.7"/>
<defs>
<linearGradient id="paint0_linear_84_1752" x1="74.55" y1="2.14197e-06" x2="42" y2="84" gradientUnits="userSpaceOnUse">
<stop stop-color="#E0FFE8"/>
<stop offset="1" stop-color="#FAFFFC"/>
</linearGradient>
<linearGradient id="paint1_linear_84_1752" x1="56.725" y1="24" x2="43.33" y2="60.4882" gradientUnits="userSpaceOnUse">
<stop stop-color="#E0FFE8"/>
<stop offset="1" stop-color="#FAFFFC"/>
</linearGradient>
</defs>
</svg>
