<svg width="84" height="84" viewBox="0 0 84 84" fill="none" xmlns="http://www.w3.org/2000/svg">
<circle cx="42" cy="42" r="42" fill="url(#paint0_linear_84_1694)"/>
<path d="M57.47 29.0675C56.5761 28.1733 55.5149 27.4639 54.3468 26.9799C53.1788 26.4959 51.9268 26.2468 50.6625 26.2468C49.3981 26.2468 48.1461 26.4959 46.9781 26.9799C45.81 27.4639 44.7488 28.1733 43.855 29.0675L42 30.9225L40.145 29.0675C38.3395 27.2621 35.8908 26.2478 33.3375 26.2478C30.7842 26.2478 28.3354 27.2621 26.53 29.0675C24.7245 30.873 23.7102 33.3217 23.7102 35.875C23.7102 38.4283 24.7245 40.8771 26.53 42.6825L42 58.1525L57.47 42.6825C58.3642 41.7887 59.0736 40.7274 59.5576 39.5594C60.0415 38.3913 60.2907 37.1394 60.2907 35.875C60.2907 34.6107 60.0415 33.3587 59.5576 32.1906C59.0736 31.0226 58.3642 29.9613 57.47 29.0675Z" stroke="#EC221F" stroke-width="3.5" stroke-linecap="round" stroke-linejoin="round"/>
<defs>
<linearGradient id="paint0_linear_84_1694" x1="74.55" y1="2.14197e-06" x2="42" y2="84" gradientUnits="userSpaceOnUse">
<stop stop-color="#FFDEDE"/>
<stop offset="1" stop-color="#FFFAFA"/>
</linearGradient>
</defs>
</svg>
