<svg width="73" height="58" viewBox="0 0 73 58" fill="none" xmlns="http://www.w3.org/2000/svg">
<path fill-rule="evenodd" clip-rule="evenodd" d="M57.1684 0.665719C57.14 0.290202 56.8271 0 56.4505 0H46.0601C45.6624 0 45.3401 0.322355 45.3401 0.72V5.38526C45.3401 5.78291 45.6624 6.10526 46.0601 6.10526H50.8944C51.271 6.10526 51.584 6.39548 51.6124 6.77101L52.4849 18.3158H42.3401H40.0773H25.0601C24.6624 18.3158 24.3401 17.9934 24.3401 17.5958V15.9832C24.3401 15.5855 24.6624 15.2632 25.0601 15.2632H26.6201C27.0177 15.2632 27.3401 14.9408 27.3401 14.5432V9.8779C27.3401 9.48025 27.0177 9.1579 26.6201 9.1579H13.0601C12.6624 9.1579 12.3401 9.48025 12.3401 9.8779V14.5432C12.3401 14.9408 12.6624 15.2632 13.0601 15.2632H17.6201C18.0177 15.2632 18.3401 15.5855 18.3401 15.9832V20.9411L16.4933 27.518C16.1127 27.4887 15.7281 27.4737 15.3401 27.4737C7.05581 27.4737 0.340088 34.3071 0.340088 42.7368C0.340088 51.1666 7.05581 58 15.3401 58C22.597 58 28.6501 52.7564 30.0401 45.7895H38.6029L44.6029 24.4211H52.9465L53.2213 28.0561C46.9397 29.8775 42.3401 35.7606 42.3401 42.7368C42.3401 51.1666 49.0557 58 57.3401 58C65.6245 58 72.3401 51.1666 72.3401 42.7368C72.3401 34.9494 66.6085 28.5242 59.2041 27.5905L57.1684 0.665719ZM14.7867 33.596L12.6484 41.2115C12.5416 41.5919 12.7612 41.9873 13.1406 42.0975L17.5269 43.3725C17.9112 43.4842 18.3129 43.2611 18.4211 42.8758L20.556 35.273C22.8464 36.9328 24.3401 39.6573 24.3401 42.7368C24.3401 47.7944 20.3106 51.8947 15.3401 51.8947C10.3695 51.8947 6.34009 47.7944 6.34009 42.7368C6.34009 37.8681 10.0738 33.8871 14.7867 33.596ZM22.2631 29.1929L23.5108 24.7494C23.5653 24.5552 23.7424 24.4211 23.9441 24.4211H37.7691C38.0672 24.4211 38.283 24.7057 38.2024 24.9927L34.1695 39.3559C34.115 39.55 33.9379 39.6842 33.7362 39.6842H30.4092C30.1946 39.6842 30.0105 39.5324 29.9635 39.323C28.9733 34.9132 26.1063 31.2312 22.2631 29.1929ZM53.6981 34.36L54.2945 42.251C54.3245 42.6483 54.6714 42.9456 55.0686 42.9146L59.6153 42.5588C60.0111 42.5279 60.3071 42.1825 60.2771 41.7867L59.6801 33.8915C63.5161 34.9396 66.3401 38.5026 66.3401 42.7368C66.3401 47.7944 62.3105 51.8947 57.3401 51.8947C52.3697 51.8947 48.3401 47.7944 48.3401 42.7368C48.3401 38.998 50.5417 35.7825 53.6981 34.36Z" fill="#32ADE6"/>
</svg>
