<svg width="73" height="70" viewBox="0 0 73 70" fill="none" xmlns="http://www.w3.org/2000/svg">
<path fill-rule="evenodd" clip-rule="evenodd" d="M18.6875 23.0187C18.6875 22.7668 18.8918 22.5625 19.1438 22.5625H22.7938C23.0457 22.5625 23.25 22.7668 23.25 23.0188V33.9688V38.5312V49.4813C23.25 49.7332 23.0457 49.9375 22.7938 49.9375H19.1438C18.8918 49.9375 18.6875 49.7332 18.6875 49.4813V23.0187ZM28.5425 38.5312C28.1393 38.5312 27.8125 38.8581 27.8125 39.2612V53.77C27.8125 54.1732 27.4857 54.5 27.0825 54.5H14.855C14.4518 54.5 14.125 54.1732 14.125 53.77V50.6675C14.125 50.2643 13.7982 49.9375 13.395 49.9375H5.73C5.32683 49.9375 5 49.6107 5 49.2075V23.2925C5 22.8893 5.32683 22.5625 5.73 22.5625H13.395C13.7982 22.5625 14.125 22.2357 14.125 21.8325V18.73C14.125 18.3268 14.4518 18 14.855 18H27.0825C27.4857 18 27.8125 18.3268 27.8125 18.73V33.2388C27.8125 33.6419 28.1393 33.9688 28.5425 33.9688H45.3325C45.7357 33.9688 46.0625 33.6419 46.0625 33.2388V18.73C46.0625 18.3268 46.3893 18 46.7925 18H59.02C59.4232 18 59.75 18.3268 59.75 18.73V21.8325C59.75 22.2357 60.0768 22.5625 60.48 22.5625H68.145C68.5482 22.5625 68.875 22.8893 68.875 23.2925V49.9375H60.48C60.0768 49.9375 59.75 50.2643 59.75 50.6675V54.5H46.7925C46.3893 54.5 46.0625 54.1732 46.0625 53.77V39.2612C46.0625 38.8581 45.7357 38.5312 45.3325 38.5312H28.5425ZM50.625 38.5312V49.4813C50.625 49.7332 50.8293 49.9375 51.0812 49.9375H54.7313C54.9832 49.9375 55.1875 49.7332 55.1875 49.4813V23.0187C55.1875 22.7668 54.9832 22.5625 54.7313 22.5625H51.0812C50.8293 22.5625 50.625 22.7668 50.625 23.0188V33.9688V38.5312ZM14.125 27.5813C14.125 27.3293 13.9207 27.125 13.6687 27.125H10.0188C9.76677 27.125 9.5625 27.3293 9.5625 27.5813V44.9188C9.5625 45.1707 9.76677 45.375 10.0188 45.375H13.6687C13.9207 45.375 14.125 45.1707 14.125 44.9188V27.5813ZM59.75 44.9188C59.75 45.1707 59.9543 45.375 60.2063 45.375H63.8563C64.1082 45.375 64.3125 45.1707 64.3125 44.9188V27.5813C64.3125 27.3293 64.1082 27.125 63.8563 27.125H60.2063C59.9543 27.125 59.75 27.3293 59.75 27.5813V44.9188Z" fill="#449BD5"/>
</svg>
