<svg width="73" height="74" viewBox="0 0 73 74" fill="none" xmlns="http://www.w3.org/2000/svg">
<path d="M69.3097 36.9201C67.3852 34.4785 64.7988 32.9987 61.7712 32.5456C61.6764 32.5314 61.6208 32.43 61.6595 32.3422C63.0883 29.1024 62.9064 25.7271 62.8947 25.5381L62.8116 24.193C62.785 23.762 62.4414 23.4184 62.0104 23.3918L60.6655 23.3089C60.5188 23.2994 58.4601 23.1881 56.0338 23.8023C55.9431 23.8253 55.854 23.7571 55.854 23.6635V1.92904C55.854 1.2991 55.3433 0.788422 54.7134 0.788422H1.14062C0.510675 0.788422 0 1.2991 0 1.92904V72.6477C0 73.2776 0.510674 73.7883 1.14062 73.7883H40.6619C40.7037 73.7883 40.7376 73.7544 40.7376 73.7126C40.7376 73.666 40.7793 73.6305 40.8254 73.6375C41.471 73.7367 42.1265 73.7883 42.7903 73.7883C45.9058 73.7883 47.345 73.256 48.5522 72.7111C49.0184 72.5007 49.0585 72.4925 49.2321 72.4925C49.4058 72.4925 49.4459 72.5007 49.9119 72.7111C51.119 73.2562 52.5582 73.7883 55.6738 73.7883C61.4656 73.7883 66.6432 69.9626 69.879 63.2918C71.8915 59.1434 72.9997 54.2433 72.9999 49.494C73.0001 44.405 71.6896 39.9394 69.3097 36.9201ZM54.0621 30.0334C55.0339 29.0618 56.4634 28.5463 57.7521 28.2874C57.8498 28.2678 57.9353 28.3533 57.9157 28.4511C57.657 29.741 57.1416 31.1699 56.1701 32.1414C55.6104 32.7012 54.8986 33.1085 54.1498 33.4035C54.1204 33.4149 54.0916 33.4265 54.0624 33.438C53.5363 33.6384 52.9939 33.7844 52.4745 33.8886C52.3772 33.9081 52.2917 33.8233 52.3107 33.7258C52.5534 32.4796 53.051 31.0448 54.0621 30.0334ZM5.47371 69.0273C5.07999 69.0273 4.76082 68.7082 4.76082 68.3144V6.26213C4.76082 5.86841 5.07999 5.54924 5.47371 5.54924H50.3802C50.7739 5.54924 51.0931 5.86841 51.0931 6.26213V26.2303C51.0931 26.271 51.0756 26.3098 51.0453 26.337C50.9269 26.4433 50.81 26.5527 50.6958 26.6669C50.2497 27.113 49.864 27.5934 49.5278 28.0929C49.4626 28.1898 49.3136 28.175 49.2706 28.0663C49.2366 27.9804 49.203 27.8965 49.1701 27.8148C48.9344 27.2306 48.2609 26.9678 47.6838 27.2202L45.4119 28.2139C44.8347 28.4663 44.5729 29.1382 44.8059 29.7235C45.3253 31.0282 45.8283 32.5139 46.2059 33.9966C46.2361 34.1152 46.112 34.2131 46.0027 34.1582C44.9236 33.616 43.689 33.0973 42.3489 32.8034C37.9863 31.8466 34.123 32.5847 31.1962 34.8772C31.171 34.897 31.1398 34.9079 31.1077 34.9079H16.257C15.6271 34.9079 15.1164 35.4185 15.1164 36.0485V38.5281C15.1164 39.158 15.6271 39.6687 16.257 39.6687H27.2425C27.3473 39.6687 27.4164 39.7781 27.3725 39.8733C26.5249 41.713 25.9471 43.8379 25.6655 46.1549C25.6568 46.2267 25.5959 46.281 25.5235 46.281H16.257C15.6271 46.281 15.1164 46.7917 15.1164 47.4216V49.9012C15.1164 50.5312 15.6271 51.0418 16.257 51.0418H25.37C25.4459 51.0418 25.5085 51.1014 25.5127 51.1773C25.6272 53.2945 25.9545 55.4196 26.478 57.4754C26.501 57.5658 26.4329 57.654 26.3395 57.654H16.257C15.6271 57.654 15.1164 58.1647 15.1164 58.7947V61.2742C15.1164 61.9042 15.6271 62.4148 16.257 62.4148H28.0868C28.1432 62.4148 28.1942 62.4481 28.2172 62.4996C28.3363 62.7664 28.4585 63.0309 28.5851 63.2917C29.6199 65.4248 30.8539 67.2656 32.2424 68.7848C32.3269 68.8772 32.2618 69.0273 32.1367 69.0273H5.47371ZM65.5956 61.2141C64.1801 64.1321 61.0088 69.0275 55.6738 69.0275C53.3226 69.0275 52.5513 68.6793 51.8711 68.372C51.2392 68.0867 50.4527 67.7317 49.232 67.7317C48.0111 67.7317 47.2248 68.0867 46.5929 68.372C45.9123 68.6793 45.1414 69.0275 42.79 69.0275C37.4552 69.0275 34.284 64.1321 32.8685 61.2141C29.3392 53.9384 29.3504 44.3625 32.8934 39.8673C34.7946 37.4555 37.633 36.6435 41.329 37.454C42.8392 37.7851 44.2805 38.6079 45.5522 39.3338C46.9352 40.1232 48.0275 40.7466 49.232 40.7466C50.4363 40.7466 51.5288 40.1231 52.9116 39.3338C54.1836 38.6079 55.625 37.7851 57.1348 37.454C60.8314 36.6432 63.6694 37.4553 65.5704 39.8673C69.1138 44.3624 69.1249 53.9384 65.5956 61.2141Z" fill="#00C247"/>
</svg>
