<svg width="153" height="35" viewBox="0 0 153 35" fill="none" xmlns="http://www.w3.org/2000/svg">
<g clip-path="url(#clip0_53_412)">
<path d="M0 11.311C0 18.0335 5.08135 22.622 11.6658 22.622C16.4465 22.622 19.2296 19.964 20.7715 17.2478L16.7762 15.3076C15.855 17.0829 13.8961 18.4895 11.6658 18.4895C7.67051 18.4895 4.78074 15.4435 4.78074 11.311C4.78074 7.17849 7.66081 4.13248 11.6658 4.13248C13.8961 4.13248 15.855 5.53908 16.7762 7.3143L20.7715 5.34507C19.2296 2.59008 16.4465 0 11.6658 0C5.08135 0 0 4.55931 0 11.311Z" fill="url(#paint0_linear_53_412)"/>
<path d="M32.1754 6.3927V17.1119C31.4578 18.0238 30.1778 18.9163 28.5681 18.9163C26.8032 18.9163 25.6589 18.1984 25.6589 15.9964V6.3927H21.4988V17.6358C21.4988 20.7206 23.1376 22.6122 26.6092 22.6122C29.1984 22.6122 31.099 21.3996 32.1754 20.2161V22.2145H36.3355V6.3927H32.1754Z" fill="url(#paint1_linear_53_412)"/>
<path d="M37.6835 10.9811C37.6835 17.209 47.0511 15.0748 47.0511 17.6649C47.0511 18.6447 46.1977 19.3334 44.394 19.3334C42.4255 19.3334 40.0981 18.2566 38.9248 17.1411L37.1211 20.158C38.789 21.7004 41.4461 22.6122 44.2001 22.6122C48.5929 22.6122 51.0851 20.4878 51.0851 17.5679C51.0851 11.1752 41.6788 13.1444 41.6788 10.8162C41.6788 9.93347 42.6582 9.27382 44.171 9.27382C46.1007 9.27382 47.9044 10.1275 48.8547 11.1072L50.5227 8.15824C48.9517 6.91656 46.8183 5.995 44.171 5.995C39.9818 5.995 37.6835 8.32315 37.6835 10.9811Z" fill="url(#paint2_linear_53_412)"/>
<path d="M53.0245 2.06628V6.39278H50.4062V10.0305H53.0245V18.2567C53.0245 21.1087 54.5664 22.6123 57.4852 22.6123C59.221 22.6123 60.3362 22.1564 60.9568 21.5937L60.0744 18.4119C59.8417 18.6738 59.2598 18.9066 58.6295 18.9066C57.718 18.9066 57.1846 18.15 57.1846 17.1411V10.0305H60.3944V6.39278H57.1846V2.06628H53.0245Z" fill="url(#paint3_linear_53_412)"/>
<path d="M64.5835 14.2891C64.5835 11.8348 66.0284 9.70065 68.6176 9.70065C71.2358 9.70065 72.6807 11.8251 72.6807 14.2891C72.6807 16.7821 71.2358 18.9066 68.6176 18.9066C66.0284 18.9163 64.5835 16.7821 64.5835 14.2891ZM60.2585 14.2891C60.2585 18.7805 63.4004 22.6122 68.6079 22.6122C73.8541 22.6122 76.996 18.7805 76.996 14.2891C76.996 9.79766 73.8541 5.995 68.6079 5.995C63.4101 5.995 60.2585 9.79766 60.2585 14.2891Z" fill="url(#paint4_linear_53_412)"/>
<path d="M91.8812 8.84699C91.3284 7.08147 89.8157 5.995 87.4883 5.995C85.064 5.995 82.9985 7.4986 82.31 8.42016V6.38302H78.1499V22.2145H82.31V11.5341C82.9306 10.6804 84.1428 9.70065 85.5877 9.70065C87.2944 9.70065 87.9441 10.7483 87.9441 12.2228V22.2145H92.143V11.5341C92.7345 10.6901 93.9467 9.70065 95.4207 9.70065C97.1274 9.70065 97.7771 10.7483 97.7771 12.2228V22.2145H101.976V10.7871C101.976 7.5471 100.24 6.0047 97.3213 6.0047C94.897 5.995 92.8024 7.44039 91.8812 8.84699Z" fill="url(#paint5_linear_53_412)"/>
<path d="M140.804 33.2148C140.804 32.8558 141.133 32.5454 141.512 32.5454C141.89 32.5454 142.2 32.8558 142.2 33.2148C142.2 33.5931 141.89 33.9035 141.512 33.9035C141.133 33.9035 140.804 33.5931 140.804 33.2148Z" fill="#1E4397"/>
<path d="M149.085 33.7583V32.5554C148.552 33.3315 147.592 33.9426 146.467 33.9426C144.469 33.9426 143.112 32.4099 143.112 29.9944C143.112 27.6081 144.469 26.0269 146.467 26.0269C147.543 26.0269 148.484 26.5701 149.085 27.4335V26.2112H149.909V33.7486H149.085V33.7583ZM149.085 31.8764V28.1513C148.649 27.4335 147.669 26.7738 146.603 26.7738C144.935 26.7738 143.965 28.1804 143.965 30.0041C143.965 31.8279 144.935 33.215 146.603 33.215C147.669 33.215 148.649 32.5942 149.085 31.8764Z" fill="#1E4397"/>
<path d="M151.296 24.4163C151.296 24.0768 151.597 23.8052 151.917 23.8052C152.256 23.8052 152.537 24.0671 152.537 24.4163C152.537 24.7558 152.256 25.0372 151.917 25.0372C151.597 25.0372 151.296 24.7558 151.296 24.4163ZM151.519 33.7581V26.2206H152.334V33.7581H151.519Z" fill="#1E4397"/>
<path d="M105.583 25.8231H0V27.1133H105.583V25.8231Z" fill="url(#paint6_linear_53_412)"/>
<path d="M127.761 31.7016C128.808 33.632 130.573 34.9998 133.182 34.9998C137.759 34.9998 139.795 30.8576 139.795 26.7348C139.795 22.612 137.759 18.4893 133.182 18.4893C129.216 18.4893 127.16 21.5935 126.685 25.1051C127.654 26.1819 128.236 27.6079 128.236 29.2861C128.226 30.1592 128.052 30.9643 127.761 31.7016ZM133.182 21.5159C135.48 21.5159 136.324 23.7955 136.324 26.7445C136.324 29.6935 135.461 31.9926 133.182 31.9926C130.913 31.9926 130.04 29.6935 130.04 26.7445C130.04 23.7858 130.903 21.5159 133.182 21.5159Z" fill="#EA4648"/>
<path d="M111.315 5.995C106.534 5.995 103.12 9.70065 103.12 14.2891C103.12 16.0352 103.576 17.5485 104.342 18.8096C105.331 18.179 106.621 17.6649 108.25 17.4903C107.853 16.9567 107.591 16.3359 107.484 15.6666H119.247V14.6868C119.247 9.53574 116.066 5.995 111.315 5.995ZM107.455 12.7855C107.62 11.214 108.735 9.40963 111.324 9.40963C114.078 9.40963 115.126 11.2819 115.252 12.7855H107.455Z" fill="url(#paint7_linear_53_412)"/>
<path d="M126.568 26.8026C126.423 26.5213 126.268 26.2594 126.074 26.0266C125.919 25.8326 125.754 25.6483 125.579 25.4931C124.571 24.5715 123.174 24.0962 121.7 24.0962C119.955 24.0962 118.345 25.0759 117.608 26.1527C117.579 26.0363 117.579 25.9393 117.579 25.8132C117.579 23.2716 119.227 21.283 121.584 21.283C123 21.283 123.911 21.7195 124.765 22.5343L126.297 19.9249C125.152 18.916 123.514 18.2758 121.574 18.2758C119.208 18.2758 117.336 19.1391 116.066 20.6136C115.93 20.7785 115.824 20.9725 115.698 21.1472C115.572 21.3218 115.436 21.4964 115.319 21.6904C114.699 22.7575 114.34 24.0477 114.204 25.4737C114.185 25.6968 114.165 25.9199 114.156 26.1527C114.156 26.2885 114.127 26.4049 114.127 26.5407C114.127 26.5892 114.136 26.6377 114.136 26.6959C114.136 26.919 114.165 27.1228 114.175 27.3362C114.272 29.0338 114.679 30.5762 115.436 31.8179C115.552 32.0119 115.659 32.2156 115.795 32.3999C115.901 32.5454 116.047 32.6618 116.163 32.7977C117.278 34.0199 118.849 34.7863 121.021 34.7863C123.611 34.7863 125.589 33.5737 126.539 31.7694C126.656 31.5366 126.753 31.3038 126.84 31.0612C126.946 30.7605 127.024 30.4501 127.073 30.1203C127.111 29.8486 127.16 29.5867 127.16 29.3054C127.16 28.3256 126.937 27.5011 126.568 26.8026ZM120.837 31.7597C118.607 31.7597 117.753 30.0621 117.608 28.5294C118.374 27.569 119.547 27.0161 120.74 27.0161C122.253 27.0161 123.688 27.7339 123.688 29.4121C123.688 30.5083 122.68 31.7597 120.837 31.7597Z" fill="#EA4648"/>
<path d="M124.454 8.52687V6.39272H120.294V17.3157C120.711 17.2575 121.128 17.1993 121.584 17.1993C122.592 17.1993 123.562 17.3642 124.464 17.6746V11.7766C125.153 10.758 126.985 9.97227 128.362 9.97227C128.857 9.97227 129.216 10.0014 129.507 10.0693V5.995C127.538 5.995 125.599 7.14937 124.454 8.52687Z" fill="url(#paint8_linear_53_412)"/>
<path d="M113.079 26.7348C113.079 26.6669 113.089 26.5893 113.089 26.5214C113.089 26.3855 113.099 26.2788 113.099 26.143C113.167 23.9216 113.758 22.0396 114.776 20.5748C113.826 19.2653 111.984 18.4989 109.472 18.4989C106.67 18.4989 104.662 19.5757 103.363 21.0405L105.06 23.1746C106.185 22.0978 107.571 21.5255 109.133 21.5255C110.781 21.5255 112.1 22.1464 112.1 23.4171C112.1 24.5909 110.898 25.1148 109.133 25.1148C108.531 25.1148 107.426 25.1148 107.145 25.0954V28.1608C107.377 28.1317 108.463 28.1123 109.133 28.1123C111.363 28.1123 112.342 28.6846 112.342 29.9554C112.342 31.1583 111.266 31.9925 109.327 31.9925C107.765 31.9925 106.02 31.3232 104.943 30.1688L103.149 32.4485C104.323 33.8842 106.524 35.0094 109.453 35.0094C111.945 35.0094 113.836 34.1849 114.873 32.8559C113.748 31.3135 113.108 29.2472 113.079 26.7348Z" fill="#EA4648"/>
</g>
<defs>
<linearGradient id="paint0_linear_53_412" x1="15.2543" y1="11.3085" x2="128.679" y2="11.3085" gradientUnits="userSpaceOnUse">
<stop stop-color="#204496"/>
<stop offset="1" stop-color="#449BD5"/>
</linearGradient>
<linearGradient id="paint1_linear_53_412" x1="15.2543" y1="14.5039" x2="128.679" y2="14.5039" gradientUnits="userSpaceOnUse">
<stop stop-color="#204496"/>
<stop offset="1" stop-color="#449BD5"/>
</linearGradient>
<linearGradient id="paint2_linear_53_412" x1="15.2544" y1="14.3082" x2="128.679" y2="14.3082" gradientUnits="userSpaceOnUse">
<stop stop-color="#204496"/>
<stop offset="1" stop-color="#449BD5"/>
</linearGradient>
<linearGradient id="paint3_linear_53_412" x1="15.2544" y1="12.3409" x2="128.679" y2="12.3409" gradientUnits="userSpaceOnUse">
<stop stop-color="#204496"/>
<stop offset="1" stop-color="#449BD5"/>
</linearGradient>
<linearGradient id="paint4_linear_53_412" x1="15.2543" y1="14.3082" x2="128.679" y2="14.3082" gradientUnits="userSpaceOnUse">
<stop stop-color="#204496"/>
<stop offset="1" stop-color="#449BD5"/>
</linearGradient>
<linearGradient id="paint5_linear_53_412" x1="15.2542" y1="14.1113" x2="128.679" y2="14.1113" gradientUnits="userSpaceOnUse">
<stop stop-color="#204496"/>
<stop offset="1" stop-color="#449BD5"/>
</linearGradient>
<linearGradient id="paint6_linear_53_412" x1="0.00633434" y1="26.4746" x2="105.586" y2="26.4746" gradientUnits="userSpaceOnUse">
<stop stop-color="#204496"/>
<stop offset="1" stop-color="#449BD5"/>
</linearGradient>
<linearGradient id="paint7_linear_53_412" x1="15.2543" y1="12.4042" x2="128.679" y2="12.4042" gradientUnits="userSpaceOnUse">
<stop stop-color="#204496"/>
<stop offset="1" stop-color="#449BD5"/>
</linearGradient>
<linearGradient id="paint8_linear_53_412" x1="15.2543" y1="11.8344" x2="128.679" y2="11.8344" gradientUnits="userSpaceOnUse">
<stop stop-color="#204496"/>
<stop offset="1" stop-color="#449BD5"/>
</linearGradient>
<clipPath id="clip0_53_412">
<rect width="152.547" height="35" fill="white"/>
</clipPath>
</defs>
</svg>
